<svg xmlns="http://www.w3.org/2000/svg" width="120" height="120" viewBox="0 0 120 120" fill="none"><path d="M55.4231 15.4886C55.4294 15.4787 55.4332 15.4677 55.4343 15.4556C55.4349 15.4423 55.4418 15.4347 55.455 15.433C55.9892 15.3595 56.4408 15.3193 56.8097 15.3123C57.246 15.3036 57.8346 15.3363 58.5754 15.4104C58.6105 15.4139 58.6378 15.4304 58.6574 15.4599C58.685 15.5025 58.7291 15.5276 58.78 15.5302C59.4886 15.565 60.053 15.6185 60.4732 15.6908C61.3469 15.841 62.2466 15.9964 63.1299 16.2395C63.8422 16.4366 64.5303 16.6597 65.2496 16.7118C66.8771 16.8299 68.4753 16.493 70.0087 15.947C71.4627 15.4295 72.8792 14.8215 74.2584 14.1229C75.3474 13.5708 76.4109 13.0264 77.4487 12.4899C77.9731 12.2184 78.4807 11.9461 78.9717 11.6729C81.7082 10.1507 84.1424 8.86121 86.2745 7.80435C87.112 7.38936 88.1328 6.90984 89.337 6.36578C90.8008 5.70423 92.3146 5.10404 93.8785 4.56519C94.3591 4.39966 94.9086 4.22892 95.5268 4.05297C98.1878 3.29505 101.058 2.82363 103.82 3.06238C105.565 3.21286 107.21 3.64174 108.756 4.34901C109.747 4.80278 110.74 5.42208 111.735 6.20691C112.861 7.09534 113.958 8.21528 115.026 9.56674C115.42 10.0639 115.688 10.6239 115.83 11.2467C115.936 11.7143 115.993 12.2815 115.999 12.9483C116.008 13.9021 115.947 14.7196 115.816 15.4009C115.269 18.2468 114.051 20.998 112.436 23.3143C110.679 25.8343 108.547 27.9171 106.04 29.5625C105.573 29.8687 105.069 30.1769 104.525 30.4871C103.711 30.9516 102.933 31.4204 102.096 31.8632C99.4639 33.2549 97.4116 34.2672 95.0277 35.4496C94.8487 35.5382 94.6662 35.638 94.4803 35.7492C94.0728 35.9931 93.6419 36.185 93.3018 36.5131C93.1066 36.7018 92.9362 36.9096 92.7906 37.1365C92.4038 37.7402 92.0766 38.4848 91.8089 39.3703C91.524 40.3126 91.3392 40.9588 91.2546 41.3089C90.9075 42.7391 90.5794 44.2726 90.2703 45.9094C89.9681 47.5092 89.6841 49.084 89.4181 50.634C88.9128 53.5794 88.4396 56.2569 87.9987 58.6664C87.8744 59.3461 87.7604 60.0277 87.6266 60.6996C87.504 61.3178 87.4262 61.942 87.295 62.5488C87.1698 63.1348 87.074 63.7408 86.9505 64.3095C86.8498 64.7766 86.7629 65.2303 86.6898 65.6708C86.6621 65.8381 86.6239 66.0097 86.5749 66.1856C86.4264 66.7117 86.3815 67.2717 86.2347 67.7839C86.0992 68.2579 86.0716 68.7563 85.9395 69.2294C85.8854 69.4239 85.8376 69.6227 85.7961 69.8259C85.7535 70.0383 85.7107 70.2409 85.6675 70.4336C85.4039 71.6172 85.1094 72.8882 84.7842 74.2466C84.5321 75.2971 84.2981 76.0837 83.9977 77.2574C83.8797 77.7187 83.7499 78.1867 83.6083 78.6613C83.4762 79.1023 83.3786 79.5434 83.2422 79.9835C83.1463 80.2917 83.0824 80.6129 82.9771 80.9194C82.9351 81.0415 82.8954 81.1648 82.8579 81.2892C81.819 84.7035 80.7184 87.8338 79.5563 90.6803C78.648 92.9063 77.5488 95.2171 76.2589 97.6127C76.0983 97.9113 75.9204 98.2004 75.759 98.5008C75.3883 99.1867 74.9241 99.9721 74.3663 100.857C73.5323 102.18 72.5799 103.514 71.5093 104.858C71.0284 105.463 70.4887 106.068 69.9759 106.64C68.2888 108.524 66.4077 110.171 64.3326 111.581C63.3788 112.229 62.3793 112.81 61.334 113.324C58.8957 114.522 56.357 115.319 53.7178 115.713C52.9816 115.823 52.537 115.887 52.3839 115.904C51.9314 115.955 51.4819 115.985 51.0352 115.996C50.2772 116.014 49.6279 115.971 48.9009 115.754C48.2504 115.56 47.7146 115.361 47.2932 115.158C46.7579 114.9 46.2174 114.645 45.7071 114.345C44.1311 113.422 42.6167 112.311 41.1639 111.014C41.119 110.974 41.0695 110.936 41.0154 110.898C40.9161 110.831 40.8738 110.71 40.7693 110.638C40.7192 110.603 40.6706 110.565 40.6234 110.522C40.377 110.301 40.135 110.069 39.8972 109.826C39.8497 109.778 39.8169 109.701 39.7565 109.668C39.6391 109.603 39.5579 109.514 39.513 109.402C39.4957 109.358 39.465 109.33 39.4206 109.316C39.2946 109.275 39.218 109.188 39.191 109.056C39.1783 108.996 39.142 108.961 39.0822 108.953C38.959 108.934 38.8899 108.86 38.875 108.731C38.872 108.707 38.8639 108.683 38.8512 108.663C38.8386 108.642 38.8216 108.624 38.8016 108.611C38.7785 108.596 38.7529 108.588 38.7247 108.586C38.7034 108.585 38.6825 108.58 38.6636 108.57C38.6446 108.559 38.6281 108.545 38.6151 108.528C38.5846 108.487 38.5607 108.44 38.5434 108.388C38.4968 108.247 38.3871 108.215 38.3017 108.112C37.425 107.06 36.7547 106.1 36.2908 105.232C35.809 104.329 35.4058 103.316 34.9559 102.367C33.6513 99.6208 32.4555 96.7306 31.6119 93.8344C31.4514 93.2828 31.2528 92.5197 31.0162 91.545C30.9247 91.1659 30.8513 90.7934 30.796 90.4277C30.7209 89.9258 30.5819 89.4405 30.5223 88.937C30.463 88.4329 30.3966 87.9207 30.3229 87.4003C30.0578 85.5346 30.0587 83.6654 30.0526 81.7902C30.0515 81.3497 30.0224 80.8792 29.9654 80.3785C29.8584 79.438 29.7645 78.468 29.684 77.4684C29.4952 75.1191 29.3038 72.7438 29.1098 70.3424C29.062 69.7463 29.0093 69.1614 28.9518 68.5879C28.8318 67.3889 28.7411 66.2082 28.5952 65.0145C28.4804 64.0733 28.3906 63.1757 28.2377 62.238C28.1721 61.8398 28.1059 61.4303 28.0392 61.0096C27.92 60.2595 27.7617 59.5507 27.5643 58.8834C27.3778 58.2514 27.2324 57.7036 27.1283 57.2399C26.772 55.6483 26.3828 53.9843 25.9609 52.2479C25.6864 51.1182 25.4132 49.9762 25.1415 48.8221C25.0684 48.5113 24.9899 48.2063 24.9058 47.9071C24.835 47.6559 24.7579 47.359 24.6744 47.0163C23.8956 43.8157 23.1056 40.6185 22.3044 37.4247C22.054 36.4269 21.835 35.5894 21.6473 34.9122C21.6128 34.789 21.5659 34.6709 21.5066 34.558C21.3276 34.2188 21.1425 33.8791 20.9514 33.5388C20.8714 33.3976 20.7787 33.2656 20.6734 33.1429C19.4197 31.6887 17.926 30.4559 16.4392 29.2483C15.2587 28.2892 14.0755 27.3169 12.8898 26.3312C11.6205 25.2749 10.442 24.126 9.35409 22.8845C9.08211 22.5737 8.82568 22.236 8.57097 21.9061C8.29699 21.5513 7.98155 21.0784 7.62468 20.4875C6.33014 18.3466 5.80921 16.019 6.0619 13.5048C6.09529 13.1743 6.14565 12.8499 6.213 12.5316C6.30021 12.1192 6.34338 11.7094 6.45821 11.304C6.76328 10.2268 7.17023 9.15957 7.67907 8.10213C8.26533 6.88582 9.04326 5.96121 10.1864 5.3014C10.8547 4.91593 11.6447 4.61728 12.4416 4.46795C13.1237 4.34033 13.7963 4.16496 14.4879 4.17885C15.1136 4.19216 15.7094 4.19679 16.2752 4.19274C16.6603 4.18985 17.0359 4.2156 17.4019 4.27001C18.0196 4.36146 18.5986 4.44567 19.1391 4.52265C19.7763 4.61294 20.467 4.80828 21.0991 4.9741C22.2687 5.28028 23.4306 5.69468 24.5847 6.21732C24.8552 6.34061 25.1053 6.46765 25.335 6.59845C25.676 6.79379 26.0326 6.9492 26.365 7.1619C27.5853 7.94268 28.746 8.76223 29.8471 9.62057C30.6449 10.2422 31.4859 10.937 32.37 11.7051C33.5437 12.7255 34.656 13.7091 35.7071 14.656C36.7892 15.6307 37.8777 16.5796 38.9725 17.5027C39.1107 17.6182 39.26 17.7606 39.4431 17.7944C39.747 17.8506 39.9859 17.8691 40.1597 17.85C40.9258 17.7667 41.6957 17.6859 42.4693 17.6078C42.9045 17.5644 43.3068 17.4567 43.7411 17.389C44.3075 17.301 44.8656 17.1997 45.4153 17.0851C46.7288 16.8108 48.2657 16.5009 50.0259 16.1553C50.803 16.0025 51.5559 15.9226 52.3157 15.782C53.319 15.598 54.3041 15.5728 55.3031 15.5598C55.3262 15.5595 55.3492 15.5528 55.3702 15.5404C55.3912 15.528 55.4093 15.5102 55.4231 15.4886ZM78.8871 26.1636C78.9381 26.1676 78.9863 26.1889 79.0236 26.2239C79.061 26.2589 79.0853 26.3056 79.0926 26.3564C79.1697 26.8993 79.4089 27.3666 79.8101 27.7585C80.0216 27.966 80.3074 28.137 80.6079 28.058C80.9291 27.9741 81.2402 27.8592 81.5412 27.7133C82.0058 27.4885 82.2259 26.991 82.327 26.5144C82.4979 25.7148 82.5091 24.8622 82.5091 24.0488C82.5091 22.6935 82.8139 20.9884 84.381 20.636C84.7857 20.5445 85.2128 20.4508 85.6623 20.3547C85.6908 20.3485 85.7172 20.3351 85.7391 20.3158C85.761 20.2965 85.7776 20.2719 85.7873 20.2444C85.797 20.2168 85.7995 20.1873 85.7945 20.1586C85.7896 20.1298 85.7774 20.1029 85.759 20.0803C85.4318 19.6766 85.2004 19.2269 84.7393 18.9343C84.5856 18.8371 84.59 18.6574 84.7108 18.5367C84.9434 18.3052 85.1915 18.0908 85.4551 17.8934C85.5941 17.7892 86.0785 17.3916 85.7771 17.2006C85.4214 16.9749 85.0622 16.7219 84.6996 16.4418C84.3655 16.1831 84.0434 16.2829 83.679 16.4166C83.3579 16.5347 83.1121 16.7193 82.9417 16.9705C82.7673 17.2266 82.6507 17.527 82.3995 17.7154C82.2066 17.8595 81.9957 17.9412 81.7666 17.9603C81.1329 18.0123 80.4637 18.1026 79.8257 18.0913C79.3162 18.0818 78.8189 18.0245 78.3285 18.1877C78.1909 18.2334 78.06 18.3278 77.9356 18.4707C77.6352 18.8171 77.1672 19.338 77.7327 19.6975C77.9601 19.8422 78.1935 19.975 78.433 20.096C78.8051 20.2835 79.103 20.5474 79.3586 20.8539C79.8213 21.4086 80.1641 22.4435 79.5096 22.974C78.856 23.5027 77.9581 23.6937 77.0956 23.718C76.8132 23.7267 76.5335 23.7788 76.252 23.8083C76.2099 23.8125 76.1711 23.8328 76.1434 23.8651C76.1158 23.8974 76.1015 23.9392 76.1035 23.9819C76.1441 24.7173 76.5171 25.4457 77.1819 25.7825C77.7068 26.0482 78.2957 26.1202 78.8871 26.1636ZM63.9683 60.1249C64.1335 60.3344 64.3464 60.5515 64.6072 60.776C65.7218 61.7362 67.0575 62.2597 68.5012 62.5367C68.7075 62.5757 68.8992 62.6591 69.1038 62.6947C69.8075 62.8154 70.4784 63.015 71.1907 63.1184C71.5211 63.1664 71.8532 63.2124 72.1871 63.2564C72.9509 63.3571 73.6966 63.3418 74.4242 63.2104C74.9065 63.1236 75.344 63.0046 75.7365 62.8536C76.8072 62.4429 77.7319 61.4827 78.2793 60.5156C78.8549 59.4992 79.3289 58.3894 79.7013 57.1861C79.9408 56.4123 80.1066 55.6463 80.1986 54.8881C80.3118 53.9582 80.2988 52.9269 80.013 52.03C79.6504 50.8893 79.4993 49.7242 79.3162 48.5139C79.1959 47.714 78.9599 46.9553 78.6082 46.2376C78.0367 45.069 77.4144 44.0726 76.7415 43.2484C76.0292 42.3768 75.0795 41.6041 74.0158 41.1857C73.5662 41.0086 73.1437 40.9058 72.7483 40.8775C72.2187 40.8387 71.7401 40.8578 71.3124 40.9348C70.4784 41.0841 69.6377 41.4337 68.7904 41.9835C67.8182 42.6138 66.9456 43.4036 66.1725 44.3528C64.9505 45.853 64.0054 47.495 63.3371 49.2788C63.1328 49.8252 62.9483 50.3843 62.7837 50.9561C62.3168 52.5802 62.1522 54.2254 62.2898 55.8917C62.413 57.3797 62.9086 58.7251 63.7766 59.9278C63.8318 60.0042 63.907 60.0485 63.9683 60.1249ZM44.0718 46.2011C43.4312 45.4736 42.6483 44.8965 41.7233 44.47C40.6337 43.9682 39.3524 43.8353 38.1868 44.0072C36.2744 44.2903 34.6382 45.576 33.7877 47.2724C32.8898 49.0649 32.5519 51.0024 32.7741 53.0849C32.9278 54.5295 33.4208 56.0818 34.2712 57.2078C35.0742 58.2713 36.1863 59.1187 37.478 59.4746C37.8636 59.5805 38.2933 59.6451 38.767 59.6682C39.296 59.6937 39.7588 59.6772 40.1554 59.6187C40.9762 59.4978 41.7622 59.2119 42.5134 58.761C42.8285 58.5717 43.1247 58.3312 43.4104 58.0925C44.1668 57.4587 44.7542 56.6745 45.1727 55.7397C45.4996 55.0105 45.7206 54.3793 45.8358 53.8463C46.3009 51.6955 46.0329 49.6165 45.0319 47.6093C44.7902 47.1237 44.4701 46.6543 44.0718 46.2011ZM65.7667 100.611C66.0482 98.6119 65.8298 96.4545 65.0354 94.64C64.4759 93.3615 63.7297 92.2479 62.7966 91.2993C60.4714 88.9353 57.282 87.4403 53.9708 87.3083C51.3866 87.2041 48.7506 87.9612 46.6051 89.5005C45.7796 90.0925 44.9991 90.7932 44.2635 91.6023C43.5716 92.3634 43.053 93.0955 42.7076 93.7988C42.4676 94.2878 42.2402 94.8446 42.0255 95.4691C41.915 95.7886 41.8537 96.1168 41.7518 96.4389C41.6787 96.6704 41.6163 96.9126 41.5645 97.1656C41.4718 97.6228 41.3837 98.0809 41.3003 98.5399C41.1828 99.1875 41.0818 100.119 40.9972 101.335C40.8936 102.82 41.0061 104.314 41.3348 105.819C41.4252 106.233 41.6125 106.776 41.8969 107.447C41.9487 107.569 42.0074 107.681 42.073 107.783C42.2423 108.046 42.3579 108.325 42.5453 108.582C43.289 109.6 44.2085 110.39 45.3039 110.95C46.6767 111.655 48.293 111.993 49.8342 112.023C50.7834 112.042 51.6693 111.993 52.4918 111.876C53.0726 111.794 53.7498 111.651 54.5234 111.449C56.8244 110.845 58.9846 109.773 60.8928 108.325C61.2951 108.019 61.6707 107.665 62.0403 107.321C63.2559 106.189 64.1982 104.908 64.8671 103.478C65.3402 102.466 65.6401 101.51 65.7667 100.611Z" fill="white"></path></svg>
